<?xml version="1.0" encoding="utf-8"?><svg xmlns="http://www.w3.org/2000/svg" xml:space="preserve" style="enable-background:new 0 0 24 24" viewBox="0 0 24 24"><path d="M24 6.12c0-.74-.07-1.47-.24-2.19-.32-1.31-1.06-2.31-2.18-3.04C21 .52 20.37.28 19.7.16c-.52-.09-1.04-.14-1.56-.15-.04 0-.09-.01-.13-.01H5.99l-.45.03c-.75.04-1.49.12-2.19.4C2 .96 1.04 1.88.47 3.21c-.19.45-.29.92-.36 1.41-.05.39-.09.78-.1 1.18 0 .03-.01.06-.01.09v12.22l.03.42c.05.82.15 1.62.5 2.37.65 1.42 1.74 2.35 3.23 2.8.42.13.86.19 1.29.23.56.06 1.11.07 1.67.07h11.03c.52 0 1.05-.03 1.57-.1.82-.11 1.6-.35 2.3-.81.84-.55 1.47-1.29 1.88-2.21.19-.42.29-.87.37-1.32.11-.68.13-1.36.13-2.04V6.12zm-6.43 3.99v5.71c0 .42-.06.83-.24 1.21-.29.59-.76.96-1.39 1.14-.35.1-.71.16-1.07.17-.95.05-1.77-.6-1.94-1.54-.14-.77.23-1.62 1.04-2.02.32-.16.67-.25 1.02-.32.38-.08.76-.15 1.13-.24.27-.06.46-.23.51-.52.01-.06.02-.13.02-.19V8.07c0-.06-.01-.12-.03-.18-.04-.15-.15-.24-.3-.23-.16 0-.32.03-.48.06-.76.15-1.52.3-2.28.46l-2.33.47-1.37.27c-.02 0-.03.01-.05.01-.28.08-.38.2-.39.49v7.93c0 .42-.05.84-.22 1.23-.28.64-.77 1.04-1.43 1.23-.35.1-.71.16-1.07.17-.96.04-1.76-.6-1.92-1.54-.14-.81.23-1.68 1.15-2.08.36-.15.73-.23 1.11-.31.29-.05.57-.1.86-.16.38-.08.58-.32.6-.71V6.15c0-.12.01-.25.04-.37.07-.28.27-.45.55-.52.25-.07.51-.12.77-.17.73-.15 1.47-.3 2.2-.44l2.27-.46c.67-.13 1.34-.27 2.01-.4.22-.04.44-.09.66-.11.31-.03.52.17.55.48.01.07.01.15.01.22.01 1.91.01 3.82.01 5.73z" style="fill:#fff"/></svg>