<?xml version="1.0" encoding="utf-8"?><svg xmlns="http://www.w3.org/2000/svg" width="189.99998474" height="190" viewBox="160.248 160.064 190 190"><path d="M305.359 260.479c0-27.861-22.665-50.528-50.528-50.528-27.86 0-50.525 22.667-50.525 50.528 0 12.892 4.861 25.168 13.694 34.576l.003-.003c1.187 1.255 3.163 1.318 4.424.131l5.447-5.124c1.253-1.18 1.316-3.152.144-4.412l.005-.007c-6.425-6.845-9.967-15.785-9.967-25.161 0-20.277 16.498-36.776 36.775-36.776 20.279 0 36.777 16.499 36.777 36.776 0 9.376-3.538 18.316-9.968 25.161l.012.012c-1.169 1.262-1.104 3.23.15 4.407l5.448 5.124c1.258 1.187 3.24 1.124 4.424-.133l-.006-.003c8.83-9.407 13.691-21.681 13.691-34.568" style="fill-opacity:1;fill-rule:nonzero;stroke:none;fill:#fff"/><path d="M324.446 260.237c0-6.884-1.03-13.674-3.07-20.191h.002c-.002-.004-.008-.011-.008-.016-.002-.005-.002-.011-.005-.021-.531-1.624-2.268-2.531-3.907-2.023l-7.142 2.22c-1.65.511-2.571 2.261-2.063 3.911l-.007.005c1.62 5.195 2.451 10.615 2.451 16.115 0 9.713-2.629 19.24-7.604 27.553l.008.008c-.875 1.479-.393 3.391 1.087 4.277l6.414 3.847c1.483.889 3.4.408 4.294-1.073 6.248-10.444 9.55-22.412 9.55-34.612M206.57 287.791c-4.973-8.312-7.603-17.838-7.603-27.553 0-5.5.827-10.919 2.451-16.112h.003v-.005c.509-1.651-.414-3.4-2.06-3.914l-7.146-2.225c-1.638-.508-3.378.4-3.905 2.032l-.012-.007c-2.044 6.531-3.084 13.335-3.084 20.231 0 12.197 3.308 24.167 9.553 34.612l.011-.005c.892 1.468 2.804 1.945 4.283 1.058l6.413-3.846c1.473-.884 1.956-2.784 1.092-4.263Z" style="fill-opacity:1;fill-rule:nonzero;stroke:none;fill:#fff"/></svg>