<svg xmlns="http://www.w3.org/2000/svg" width="24" height="24"><path fill="#fff" d="M14.181 17.909a.343.343 0 0 1-.149-.035l-4.2-2.1-3.667 2.091a.333.333 0 0 1-.5-.289V8.849a.333.333 0 0 1 .168-.29l3.82-2.182a.336.336 0 0 1 .314-.009l4.205 2.1 3.662-2.094a.338.338 0 0 1 .333 0 .334.334 0 0 1 .166.289v8.727a.333.333 0 0 1-.168.289l-3.818 2.182a.328.328 0 0 1-.166.048Zm-4.363-2.848a.326.326 0 0 1 .149.035l4.2 2.1 3.5-2V7.241l-3.319 1.9a.333.333 0 0 1-.314.009l-4.2-2.1-3.5 2V17l3.32-1.9a.333.333 0 0 1 .164-.039Z"/><path fill="#fff" d="M9.485 6.667h.667v8.727h-.667zM13.849 8.849h.667v8.727h-.667z"/></svg>