<svg xmlns="http://www.w3.org/2000/svg" width="512" height="512" viewBox="0 0 24 24"><path fill="#fff" d="M20.25 11c-.267 0-.529.029-.782.082C19.131 7.673 16.246 5 12.75 5c-.414 0-.75.336-.75.75v12c0 .414.336.75.75.75h7.5c2.069 0 3.75-1.681 3.75-3.75 0-2.067-1.681-3.75-3.75-3.75zM9 7.25v10.5c0 .414.336.75.75.75s.75-.336.75-.75V7.25c0-.414-.336-.75-.75-.75S9 6.836 9 7.25zM6 10.25v7.5c0 .414.336.75.75.75s.75-.336.75-.75v-7.5c0-.414-.336-.75-.75-.75s-.75.336-.75.75zM3 17.75c0 .414.336.75.75.75s.75-.336.75-.75v-7.5c0-.414-.336-.75-.75-.75s-.75.336-.75.75zM.75 18.5c.414 0 .75-.336.75-.75v-4.5c0-.414-.336-.75-.75-.75s-.75.336-.75.75v4.5c0 .414.336.75.75.75z"/></svg>