<?xml version="1.0" encoding="utf-8"?><svg xmlns="http://www.w3.org/2000/svg" xml:space="preserve" id="Layer_1" x="0" y="0" style="enable-background:new 0 0 103.35 68.43" version="1.1" viewBox="0 0 103.35 68.43"><style>.st0{fill:#fff}</style><path d="M84.12 64.52c-.36 1.96-1.74 3.41-3.85 3.85-1.16.22-2.18-.07-3.19-.65-5.44-3.27-11.25-5.73-17.34-7.4-3.77-1.02-7.62-1.81-11.54-2.1-3.63-.29-7.18-.51-10.81-.51-3.7.07-7.47.36-11.1.87-4.43.58-8.78 1.52-13.14 2.25-1.52.29-3.56-.73-4.5-2.18-.94-1.6-.8-3.77.29-5.15.73-.87 1.6-1.52 2.76-1.74 4.86-.87 9.72-1.81 14.66-2.47 4.21-.58 8.42-.73 12.63-1.02 10.67.15 21.12 1.81 31.06 5.66 4.06 1.6 7.98 3.48 11.68 5.73 1.81 1.23 2.68 3.04 2.39 4.86M91.95 47.1c-1.89 2.25-4.79 2.76-7.4 1.38-2.76-1.45-5.44-2.98-8.27-4.28-5.66-2.61-11.54-4.43-17.63-5.59-4.35-.8-8.78-1.38-13.21-1.81-3.48-.36-6.97-.44-10.45-.36-7.55.22-15.02 1.31-22.35 3.48-4.5 1.31-7.69-1.89-7.69-5.52 0-2.32 1.6-4.64 3.99-5.3 4.21-1.09 8.42-2.03 12.63-2.9 5.44-1.02 10.96-1.38 16.55-1.52 4.43.29 8.93.44 13.35 1.02 12.99 1.6 25.33 5.23 36.79 11.68 1.23.65 2.47 1.38 3.41 2.39 1.95 2.03 1.95 5.3.28 7.33M103.28 21.05c-.44 2.83-2.61 5.15-5.44 5.73-1.6.29-3.19.15-4.57-.65-8.56-5.01-17.85-8.06-27.58-9.94-3.77-.73-7.62-1.16-11.47-1.67-5.3-.73-10.67-.94-16.04-.8-4.86.15-9.65.58-14.51 1.02-5.3.44-10.38 1.74-15.53 3.12C4.37 18.88.23 15.61.01 11.69-.14 8.28 1.9 5.38 5.38 4.43c5.08-1.45 10.23-2.47 15.53-3.19 2.69-.36 5.3-.58 7.98-.73C32.45.29 36 .15 38.61 0c3.99.15 7.18.07 10.31.36 4.64.36 9.29.94 13.93 1.6 7.26 1.02 14.37 2.76 21.26 5.15 5.44 1.89 10.67 4.21 15.68 7.11 2.54 1.38 3.92 4.14 3.49 6.83" class="st0"/></svg>