<?xml version="1.0" encoding="utf-8"?><svg xmlns="http://www.w3.org/2000/svg" xml:space="preserve" id="Layer_1" x="0" y="0" style="enable-background:new 0 0 116.07 77.65" version="1.1" viewBox="0 0 116.07 77.65"><style>.st0{fill:#fff}</style><path d="M58.14 77.65c-6.33-6.33-12.72-12.72-18.98-19.04 6.19-6.19 12.65-12.58 19.04-18.91 6.12 6.12 12.58 12.58 18.91 18.98-6.26 6.25-12.72 12.65-18.97 18.97M96.76 38.69c-6.19-6.26-12.58-12.65-19.11-19.24-6.59 6.66-12.99 13.12-19.51 19.65-6.59-6.66-12.99-13.19-19.58-19.85l-.34.34c-6.53 6.59-12.85 12.92-19.04 19.18C12.72 32.3 6.33 25.91 0 19.58 6.33 13.26 12.78 6.86 19.24.4c6.26 6.33 12.58 12.72 19.04 19.24l.34-.34C45.15 12.72 51.41 6.39 57.73 0c6.73 6.73 13.12 13.19 19.58 19.65C83.91 12.99 90.3 6.53 96.63.07c6.73 6.73 13.12 13.19 19.45 19.51-6.4 6.33-12.86 12.72-19.32 19.11" class="st0"/></svg>