<svg xmlns="http://www.w3.org/2000/svg" width="83.503" height="58.712"><path fill="#fff" d="M82.687 12.722q.814 8.4.816 13.374v6.36q0 5.138-.816 13.538-1.469 6.359-3.262 8.317a10.156 10.156 0 0 1-4.852 2.976 27.091 27.091 0 0 1-3.628.613q-4.325.326-9.46.489-5.058.161-9.46.244t-7.339.081h-6.44q-3.508-.081-8.2-.161t-9.418-.244q-4.728-.165-7.256-.408-1.385-.245-4.119-.694a9.532 9.532 0 0 1-5.177-2.9Q2.2 52.35.814 45.99q-.817-8.4-.816-13.538v-6.36q0-5.057.816-13.374Q2.28 6.195 4.076 4.402a9.226 9.226 0 0 1 4.852-3.059 34.041 34.041 0 0 1 3.628-.53q4.321-.326 9.46-.489Q27.07.159 31.474.08t7.339-.083h5.871q2.936 0 7.339.083t9.46.244q5.138.161 9.46.489 1.22.165 3.628.611a9.4 9.4 0 0 1 4.852 2.978q1.879 1.879 3.264 8.32Zm-26.909 15.82L33.272 16.8v23.484l19.733-10.273Z"/></svg>